<svg width="8" height="7" viewBox="0 0 8 7" xmlns="http://www.w3.org/2000/svg">
<path d="M6.8734 0.11315L4.00036 2.98649L1.12733 0.11315C1.05823 0.0499095 0.967399 0.0157711 0.873756 0.0178462C0.780113 0.0199213 0.690881 0.05805 0.624649 0.124289C0.558417 0.190528 0.520292 0.279769 0.518217 0.373423C0.516142 0.467076 0.550277 0.557919 0.613511 0.627027L3.48508 3.50036L0.612782 6.37297C0.577691 6.40642 0.549639 6.44654 0.530276 6.49099C0.510912 6.53543 0.500628 6.5833 0.500028 6.63177C0.499428 6.68025 0.508523 6.72836 0.52678 6.77327C0.545037 6.81818 0.572086 6.85898 0.606338 6.89329C0.640591 6.92759 0.681354 6.9547 0.726233 6.97302C0.771112 6.99135 0.819201 7.00051 0.867673 6.99998C0.916144 6.99945 0.96402 6.98923 1.00849 6.96993C1.05295 6.95062 1.09311 6.92263 1.1266 6.88758L4.00036 4.01497L6.8734 6.88831C6.9425 6.95155 7.03333 6.98569 7.12697 6.98361C7.22062 6.98154 7.30985 6.94341 7.37608 6.87717C7.44231 6.81093 7.48044 6.72169 7.48251 6.62804C7.48459 6.53438 7.45045 6.44354 7.38722 6.37443L4.51419 3.50109L7.38722 0.627027C7.42231 0.593581 7.45036 0.553457 7.46972 0.509013C7.48909 0.46457 7.49937 0.416703 7.49997 0.368227C7.50057 0.319751 7.49148 0.271645 7.47322 0.226735C7.45496 0.181825 7.42791 0.141019 7.39366 0.106714C7.35941 0.0724097 7.31865 0.0452995 7.27377 0.0269772C7.22889 0.00865485 7.1808 -0.000509783 7.13233 2.18746e-05C7.08386 0.000553533 7.03598 0.0107708 6.99151 0.0300732C6.94705 0.0493755 6.90689 0.0773732 6.8734 0.112421V0.11315Z" fill="#3B82F6"/>
</svg>
