<svg width="15" height="14" viewBox="0 0 15 14" fill="none" xmlns="http://www.w3.org/2000/svg">
<path d="M7.5 0.430389C3.8775 0.430389 0.9375 3.37358 0.9375 7C0.9375 10.6264 3.8775 13.5696 7.5 13.5696C11.1225 13.5696 14.0625 10.6264 14.0625 7C14.0625 3.37358 11.1225 0.430389 7.5 0.430389ZM7.5 12.2557C4.60594 12.2557 2.25 9.8972 2.25 7C2.25 4.1028 4.60594 1.74431 7.5 1.74431C10.3941 1.74431 12.75 4.1028 12.75 7C12.75 9.8972 10.3941 12.2557 7.5 12.2557Z" fill="white"/>
<path d="M10.1953 6.53075H7.96875V4.30177C7.96875 4.23725 7.91602 4.18445 7.85156 4.18445H7.14844C7.08398 4.18445 7.03125 4.23725 7.03125 4.30177V6.53075H4.80469C4.74023 6.53075 4.6875 6.58354 4.6875 6.64806V7.35195C4.6875 7.41647 4.74023 7.46926 4.80469 7.46926H7.03125V9.69824C7.03125 9.76276 7.08398 9.81555 7.14844 9.81555H7.85156C7.91602 9.81555 7.96875 9.76276 7.96875 9.69824V7.46926H10.1953C10.2598 7.46926 10.3125 7.41647 10.3125 7.35195V6.64806C10.3125 6.58354 10.2598 6.53075 10.1953 6.53075Z" fill="white"/>
</svg>
